<svg width="250" height="264" viewBox="0 0 250 264" fill="none" xmlns="http://www.w3.org/2000/svg">
<path d="M73.4884 104.397L166.741 87.3645L151.199 79.2188L57.9463 96.9914L73.4884 104.397Z" fill="url(#paint0_linear_8139_1659)"/>
<path d="M57.9463 96.9921L151.199 79.2195V67.3711L57.9463 84.4032V96.9921Z" fill="url(#paint1_linear_8139_1659)"/>
<path d="M73.4883 116.986L166.741 99.2137V87.3652L73.4883 104.397V116.986Z" fill="url(#paint2_linear_8139_1659)"/>
<path d="M86.07 122.911L179.323 105.879L166.741 99.2139L73.4883 116.987L86.07 122.911Z" fill="url(#paint3_linear_8139_1659)"/>
<path d="M57.9468 84.4028L151.199 67.3707L137.878 58.4844L44.625 76.257L57.9468 84.4028Z" fill="url(#paint4_linear_8139_1659)"/>
<path d="M44.625 76.2578L137.878 58.4851V46.6367L44.625 63.6688V76.2578Z" fill="url(#paint5_linear_8139_1659)"/>
<path d="M94.9512 167.34L231.129 170.302V155.492L94.9512 154.751V167.34Z" fill="url(#paint6_linear_8139_1659)"/>
<path d="M92.7314 170.302L214.848 185.113L249.633 177.707L231.13 170.302L94.9517 167.34L92.7314 170.302Z" fill="url(#paint7_linear_8139_1659)"/>
<path d="M44.6251 63.6688L137.878 46.6367L122.336 39.2314L29.083 57.0041L44.6251 63.6688Z" fill="url(#paint8_linear_8139_1659)"/>
<path d="M92.7314 152.531L201.526 141.423V129.576L92.7314 139.942V152.531Z" fill="url(#paint9_linear_8139_1659)"/>
<path d="M86.0703 135.498L179.323 117.727V105.879L86.0703 122.911V135.498Z" fill="url(#paint10_linear_8139_1659)"/>
<path d="M92.7312 139.941L201.526 129.575L179.323 117.727L86.0703 135.498L92.7312 139.941Z" fill="url(#paint11_linear_8139_1659)"/>
<path d="M94.9517 154.752L231.13 155.493L201.526 141.423L92.7314 152.531L94.9517 154.752Z" fill="url(#paint12_linear_8139_1659)"/>
<path d="M131.956 239.172L74.2284 211.772L52.0254 215.475L109.753 245.096L131.956 239.172Z" fill="url(#paint13_linear_8139_1659)"/>
<path d="M131.956 227.324L74.2285 198.443V211.773L131.956 239.172V227.324Z" fill="url(#paint14_linear_8139_1659)"/>
<path d="M170.441 218.437L84.5899 196.962L74.2285 198.443L131.956 227.323L170.441 218.437Z" fill="url(#paint15_linear_8139_1659)"/>
<path d="M214.848 185.113V196.962L170.442 206.589V218.437L131.957 227.323V239.172L109.754 245.096V265.09L132.697 258.425L219.289 211.772L249.633 200.664V177.708L214.848 185.113Z" fill="url(#paint16_linear_8139_1659)"/>
<path d="M170.441 206.589L84.5898 184.373V196.962L170.441 218.437V206.589Z" fill="url(#paint17_linear_8139_1659)"/>
<path d="M52.0254 215.475V235.469L109.753 265.09V245.096L52.0254 215.475Z" fill="url(#paint18_linear_8139_1659)"/>
<path d="M108.273 7.38837L92.7312 0.723633L0.21875 17.0152L15.0207 24.4205L108.273 7.38837Z" fill="url(#paint19_linear_8139_1659)"/>
<path d="M15.0205 37.0097L108.273 19.2371V7.38867L15.0205 24.4208V37.0097Z" fill="url(#paint20_linear_8139_1659)"/>
<path d="M29.0824 44.4142L122.335 27.3821L108.273 19.2363L15.0205 37.009L29.0824 44.4142Z" fill="url(#paint21_linear_8139_1659)"/>
<path d="M29.083 57.0039L122.336 39.2312V27.3828L29.083 44.4149V57.0039Z" fill="url(#paint22_linear_8139_1659)"/>
<path d="M214.848 185.113L92.7314 170.303V176.597V182.892L214.848 196.962V185.113Z" fill="url(#paint23_linear_8139_1659)"/>
<path d="M214.847 196.963L92.7309 182.893L84.5898 184.374L170.441 206.589L214.847 196.963Z" fill="url(#paint24_linear_8139_1659)"/>
<path d="M94.9515 167.341V154.752L92.7312 152.53V139.941L86.0703 135.498V122.911L73.4886 116.987V104.398L57.9465 96.9925V84.4035L44.6247 76.2577V63.6688L29.0826 57.004V44.4151L15.0207 37.0098V24.4209L0.21875 17.0156V40.7125L6.87964 45.8961L80.1495 143.644L92.7312 176.598V170.303L94.9515 167.341Z" fill="url(#paint25_linear_8139_1659)"/>
<defs>
<linearGradient id="paint0_linear_8139_1659" x1="57.9463" y1="91.8071" x2="166.741" y2="91.8071" gradientUnits="userSpaceOnUse">
<stop stop-color="#F4C09F"/>
<stop offset="0.2354" stop-color="#F3C7AB"/>
<stop offset="0.543" stop-color="#F0CEB8"/>
<stop offset="0.8086" stop-color="#F4DCCE"/>
<stop offset="1" stop-color="#F9E5DA"/>
</linearGradient>
<linearGradient id="paint1_linear_8139_1659" x1="57.9463" y1="82.181" x2="151.199" y2="82.181" gradientUnits="userSpaceOnUse">
<stop stop-color="#F4C09F"/>
<stop offset="0.2354" stop-color="#F3C7AB"/>
<stop offset="0.543" stop-color="#F0CEB8"/>
<stop offset="0.8086" stop-color="#F4DCCE"/>
<stop offset="1" stop-color="#F8E1D4"/>
</linearGradient>
<linearGradient id="paint2_linear_8139_1659" x1="73.4883" y1="102.175" x2="166.741" y2="102.175" gradientUnits="userSpaceOnUse">
<stop stop-color="#F4C09F"/>
<stop offset="0.2354" stop-color="#F3C7AB"/>
<stop offset="0.543" stop-color="#F0CEB8"/>
<stop offset="0.8086" stop-color="#F4DCCE"/>
<stop offset="1" stop-color="#F8E1D4"/>
</linearGradient>
<linearGradient id="paint3_linear_8139_1659" x1="73.4883" y1="111.062" x2="179.323" y2="111.062" gradientUnits="userSpaceOnUse">
<stop stop-color="#F4C09F"/>
<stop offset="0.2354" stop-color="#F3C7AB"/>
<stop offset="0.543" stop-color="#F4DCCE"/>
<stop offset="0.8086" stop-color="#F4DCCE"/>
<stop offset="1" stop-color="#F9E5DA"/>
</linearGradient>
<linearGradient id="paint4_linear_8139_1659" x1="44.625" y1="71.443" x2="151.199" y2="71.443" gradientUnits="userSpaceOnUse">
<stop stop-color="#F4C09F"/>
<stop offset="0.2354" stop-color="#F3C7AB"/>
<stop offset="0.543" stop-color="#F0CEB8"/>
<stop offset="0.8086" stop-color="#F4DCCE"/>
<stop offset="1" stop-color="#F9E5DA"/>
</linearGradient>
<linearGradient id="paint5_linear_8139_1659" x1="44.625" y1="61.4466" x2="137.878" y2="61.4466" gradientUnits="userSpaceOnUse">
<stop stop-color="#F4C09F"/>
<stop offset="0.2354" stop-color="#F3C7AB"/>
<stop offset="0.543" stop-color="#F0CEB8"/>
<stop offset="0.8086" stop-color="#F4DCCE"/>
<stop offset="1" stop-color="#F8E1D4"/>
</linearGradient>
<linearGradient id="paint6_linear_8139_1659" x1="94.9512" y1="162.527" x2="231.129" y2="162.527" gradientUnits="userSpaceOnUse">
<stop stop-color="#F4C09F"/>
<stop offset="0.2354" stop-color="#F3C7AB"/>
<stop offset="0.543" stop-color="#F0CEB8"/>
<stop offset="0.8086" stop-color="#F4DCCE"/>
<stop offset="1" stop-color="#F9E5DA"/>
</linearGradient>
<linearGradient id="paint7_linear_8139_1659" x1="92.7314" y1="176.226" x2="249.633" y2="176.226" gradientUnits="userSpaceOnUse">
<stop stop-color="#F4C09F"/>
<stop offset="0.2354" stop-color="#F3C7AB"/>
<stop offset="0.543" stop-color="#F0CEB8"/>
<stop offset="0.8086" stop-color="#F4DCCE"/>
<stop offset="1" stop-color="#F9E5DA"/>
</linearGradient>
<linearGradient id="paint8_linear_8139_1659" x1="29.083" y1="51.4495" x2="137.878" y2="51.4495" gradientUnits="userSpaceOnUse">
<stop stop-color="#F4C09F"/>
<stop offset="0.2354" stop-color="#F3C7AB"/>
<stop offset="0.543" stop-color="#F0CEB8"/>
<stop offset="0.8086" stop-color="#F4DCCE"/>
<stop offset="1" stop-color="#F9E5DA"/>
</linearGradient>
<linearGradient id="paint9_linear_8139_1659" x1="92.7314" y1="141.053" x2="201.526" y2="141.053" gradientUnits="userSpaceOnUse">
<stop stop-color="#F4C09F"/>
<stop offset="0.2354" stop-color="#F3C7AB"/>
<stop offset="0.543" stop-color="#F0CEB8"/>
<stop offset="0.8086" stop-color="#F4DCCE"/>
<stop offset="1" stop-color="#F9E5DA"/>
</linearGradient>
<linearGradient id="paint10_linear_8139_1659" x1="86.0703" y1="120.688" x2="179.323" y2="120.688" gradientUnits="userSpaceOnUse">
<stop stop-color="#F4C09F"/>
<stop offset="0.2354" stop-color="#F3C7AB"/>
<stop offset="0.543" stop-color="#F0CEB8"/>
<stop offset="0.8086" stop-color="#F4DCCE"/>
<stop offset="1" stop-color="#F9E5DA"/>
</linearGradient>
<linearGradient id="paint11_linear_8139_1659" x1="86.0703" y1="128.833" x2="201.526" y2="128.833" gradientUnits="userSpaceOnUse">
<stop stop-color="#F4C09F"/>
<stop offset="0.2354" stop-color="#F3C7AB"/>
<stop offset="0.543" stop-color="#F0CEB8"/>
<stop offset="0.8086" stop-color="#F4DCCE"/>
<stop offset="1" stop-color="#F9E5DA"/>
</linearGradient>
<linearGradient id="paint12_linear_8139_1659" x1="92.7314" y1="148.458" x2="231.13" y2="148.458" gradientUnits="userSpaceOnUse">
<stop stop-color="#F4C09F"/>
<stop offset="0.2354" stop-color="#F3C7AB"/>
<stop offset="0.543" stop-color="#F0CEB8"/>
<stop offset="0.8086" stop-color="#F4DCCE"/>
<stop offset="1" stop-color="#F9E5DA"/>
</linearGradient>
<linearGradient id="paint13_linear_8139_1659" x1="52.0254" y1="228.434" x2="131.956" y2="228.434" gradientUnits="userSpaceOnUse">
<stop stop-color="#F4C09F"/>
<stop offset="0.2354" stop-color="#F3C7AB"/>
<stop offset="0.543" stop-color="#F0CEB8"/>
<stop offset="0.8086" stop-color="#F4DCCE"/>
<stop offset="1" stop-color="#F9E5DA"/>
</linearGradient>
<linearGradient id="paint14_linear_8139_1659" x1="74.2285" y1="218.808" x2="131.956" y2="218.808" gradientUnits="userSpaceOnUse">
<stop stop-color="#F4C09F"/>
<stop offset="0.2354" stop-color="#F3C7AB"/>
<stop offset="0.543" stop-color="#F0CEB8"/>
<stop offset="0.8086" stop-color="#F4DCCE"/>
<stop offset="1" stop-color="#F9E5DA"/>
</linearGradient>
<linearGradient id="paint15_linear_8139_1659" x1="74.2285" y1="212.143" x2="170.441" y2="212.143" gradientUnits="userSpaceOnUse">
<stop stop-color="#F4C09F"/>
<stop offset="0.2354" stop-color="#F3C7AB"/>
<stop offset="0.543" stop-color="#F0CEB8"/>
<stop offset="0.8086" stop-color="#F4DCCE"/>
<stop offset="1" stop-color="#F9E5DA"/>
</linearGradient>
<linearGradient id="paint16_linear_8139_1659" x1="109.754" y1="221.399" x2="249.633" y2="221.399" gradientUnits="userSpaceOnUse">
<stop stop-color="#F4C09F"/>
<stop offset="0.2354" stop-color="#F3C7AB"/>
<stop offset="0.543" stop-color="#F0CEB8"/>
<stop offset="0.8086" stop-color="#F4DCCE"/>
<stop offset="1" stop-color="#F9E5DA"/>
</linearGradient>
<linearGradient id="paint17_linear_8139_1659" x1="84.5898" y1="201.405" x2="170.441" y2="201.405" gradientUnits="userSpaceOnUse">
<stop stop-color="#F4C09F"/>
<stop offset="0.2354" stop-color="#F3C7AB"/>
<stop offset="0.543" stop-color="#F0CEB8"/>
<stop offset="0.8086" stop-color="#F4DCCE"/>
<stop offset="1" stop-color="#F9E5DA"/>
</linearGradient>
<linearGradient id="paint18_linear_8139_1659" x1="52.0254" y1="240.282" x2="109.753" y2="240.282" gradientUnits="userSpaceOnUse">
<stop stop-color="#F4C09F"/>
<stop offset="0.2354" stop-color="#F3C7AB"/>
<stop offset="0.543" stop-color="#F0CEB8"/>
<stop offset="0.8086" stop-color="#F4DCCE"/>
<stop offset="1" stop-color="#F9E5DA"/>
</linearGradient>
<linearGradient id="paint19_linear_8139_1659" x1="0.21875" y1="12.5715" x2="108.273" y2="12.5715" gradientUnits="userSpaceOnUse">
<stop stop-color="#F4C09F"/>
<stop offset="0.2354" stop-color="#F3C7AB"/>
<stop offset="0.543" stop-color="#F0CEB8"/>
<stop offset="0.8086" stop-color="#F4DCCE"/>
<stop offset="1" stop-color="#F9E5DA"/>
</linearGradient>
<linearGradient id="paint20_linear_8139_1659" x1="15.0205" y1="22.1986" x2="108.273" y2="22.1986" gradientUnits="userSpaceOnUse">
<stop stop-color="#F4C09F"/>
<stop offset="0.2354" stop-color="#F3C7AB"/>
<stop offset="0.543" stop-color="#F0CEB8"/>
<stop offset="0.8086" stop-color="#F4DCCE"/>
<stop offset="1" stop-color="#F8E1D4"/>
</linearGradient>
<linearGradient id="paint21_linear_8139_1659" x1="15.0205" y1="31.8247" x2="122.335" y2="31.8247" gradientUnits="userSpaceOnUse">
<stop stop-color="#74AEB4"/>
<stop offset="0.0001" stop-color="#F4C09F"/>
<stop offset="0.2354" stop-color="#F3C7AB"/>
<stop offset="0.543" stop-color="#F0CEB8"/>
<stop offset="0.8086" stop-color="#F4DCCE"/>
<stop offset="1" stop-color="#F9E5DA"/>
</linearGradient>
<linearGradient id="paint22_linear_8139_1659" x1="29.083" y1="42.1927" x2="122.336" y2="42.1927" gradientUnits="userSpaceOnUse">
<stop stop-color="#F4C09F"/>
<stop offset="0.2354" stop-color="#F3C7AB"/>
<stop offset="0.543" stop-color="#F0CEB8"/>
<stop offset="0.8086" stop-color="#F4DCCE"/>
<stop offset="1" stop-color="#F8E1D4"/>
</linearGradient>
<linearGradient id="paint23_linear_8139_1659" x1="92.7314" y1="183.632" x2="214.848" y2="183.632" gradientUnits="userSpaceOnUse">
<stop stop-color="#F4C09F"/>
<stop offset="0.2354" stop-color="#F3C7AB"/>
<stop offset="0.543" stop-color="#F0CEB8"/>
<stop offset="0.8086" stop-color="#F4DCCE"/>
<stop offset="1" stop-color="#F9E5DA"/>
</linearGradient>
<linearGradient id="paint24_linear_8139_1659" x1="84.5898" y1="194.741" x2="214.847" y2="194.741" gradientUnits="userSpaceOnUse">
<stop stop-color="#F4C09F"/>
<stop offset="0.2354" stop-color="#F3C7AB"/>
<stop offset="0.543" stop-color="#F0CEB8"/>
<stop offset="0.8086" stop-color="#F4DCCE"/>
<stop offset="1" stop-color="#F9E5DA"/>
</linearGradient>
<linearGradient id="paint25_linear_8139_1659" x1="0.21875" y1="96.806" x2="94.9515" y2="96.806" gradientUnits="userSpaceOnUse">
<stop stop-color="#F4C09F"/>
<stop offset="0.2354" stop-color="#F3C7AB"/>
<stop offset="0.543" stop-color="#F0CEB8"/>
<stop offset="0.8086" stop-color="#F4DCCE"/>
<stop offset="1" stop-color="#F9E5DA"/>
</linearGradient>
</defs>
</svg>
