<svg width="218" height="262" viewBox="0 0 218 262" fill="none" xmlns="http://www.w3.org/2000/svg">
<path d="M126.688 126.486H126.688V126.487H126.688V126.486Z" fill="url(#paint0_linear_8139_1282)"/>
<path d="M162.289 142.454L126.688 126.486L126.69 126.488L162.289 142.454Z" fill="url(#paint1_linear_8139_1282)"/>
<path d="M126.689 126.485L117.077 113.991L126.688 126.485H126.689Z" fill="url(#paint2_linear_8139_1282)"/>
<path d="M86.7422 255.121L96.261 253.935V250.377L86.7422 251.563V255.121Z" fill="url(#paint3_linear_8139_1282)"/>
<path d="M159.91 146.14V153.721L188.463 150.756L162.29 143.047V146.012L159.91 146.14Z" fill="url(#paint4_linear_8139_1282)"/>
<path d="M128.978 147.79L159.91 146.139L162.289 146.011V143.046V142.453L128.978 144.232V147.79Z" fill="url(#paint5_linear_8139_1282)"/>
<path d="M188.463 161.429L206.308 154.906L188.463 152.534V154.313V161.429Z" fill="url(#paint6_linear_8139_1282)"/>
<path d="M217.016 160.243H206.309V167.952L217.016 160.243Z" fill="url(#paint7_linear_8139_1282)"/>
<path d="M159.91 157.279L188.463 154.314V152.535V150.756L159.91 153.721V157.279Z" fill="url(#paint8_linear_8139_1282)"/>
<path d="M101.615 227.844H103.995H112.917V224.286H101.615V227.844Z" fill="url(#paint9_linear_8139_1282)"/>
<path d="M206.309 171.51L217.016 163.801V160.243L206.309 167.952V171.51Z" fill="url(#paint10_linear_8139_1282)"/>
<path d="M112.917 215.984H122.435V212.426H111.133V215.984H112.917Z" fill="url(#paint11_linear_8139_1282)"/>
<path d="M112.917 224.286V215.984H111.133V212.426L114.103 206.496H90.9043L101.615 224.286H112.917Z" fill="url(#paint12_linear_8139_1282)"/>
<path d="M130.763 131.782V135.338H128.978V144.233L162.29 142.454L126.69 126.487L130.763 131.782Z" fill="url(#paint13_linear_8139_1282)"/>
<path d="M130.763 131.781H93.8809V135.338H128.978H130.763V131.781Z" fill="url(#paint14_linear_8139_1282)"/>
<path d="M188.463 164.988L206.308 158.465V154.907L188.463 161.43V164.988Z" fill="url(#paint15_linear_8139_1282)"/>
<path d="M86.7428 251.563L32.0166 238.642V242.2L86.7428 255.121V251.563Z" fill="url(#paint16_linear_8139_1282)"/>
<path d="M103.995 238.517V236.738L93.881 220.135L57.5928 220.728L95.2848 238.642L103.995 238.517Z" fill="url(#paint17_linear_8139_1282)"/>
<path d="M130.763 131.781L126.69 126.487H126.689L126.688 126.485L126.595 126.444L126.688 126.485L117.078 113.991H106.37L93.8809 131.781H130.763Z" fill="url(#paint18_linear_8139_1282)"/>
<path d="M96.2616 250.377L60.5694 233.181L32.0166 238.642L86.7428 251.563L96.2616 250.377Z" fill="url(#paint19_linear_8139_1282)"/>
<path d="M95.2848 238.643L57.5928 220.729V224.286L95.2848 242.201V238.643Z" fill="url(#paint20_linear_8139_1282)"/>
<path d="M96.2616 242.186L95.2848 242.2L57.5928 224.286L60.5694 225.702V233.181L96.2616 250.378V242.186Z" fill="url(#paint21_linear_8139_1282)"/>
<path d="M103.995 227.843H101.615L90.9043 210.054L93.8809 214.999V220.135L103.995 236.738V227.843Z" fill="url(#paint22_linear_8139_1282)"/>
<path d="M95.2842 242.2L96.2609 242.186V242.185V242.186L103.994 242.075V238.518L95.2842 238.642V242.2Z" fill="url(#paint23_linear_8139_1282)"/>
<path d="M176.562 169.731C162.761 165.937 139.087 159.454 128.974 156.686C135.042 163.372 137.679 169.544 138.639 175.661C139.466 180.94 139.045 186.18 138.496 191.672C137.546 201.16 130.168 213.612 127.19 218.356C126.041 220.189 121.077 227.147 115.419 235.001C116.27 234.969 144.437 216.577 152.174 212.426C159.91 208.275 168.829 202.346 190.839 196.416C212.848 190.486 216.424 186.335 217.016 185.149C213.45 180.998 193.813 174.475 176.562 169.731Z" fill="url(#paint24_linear_8139_1282)"/>
<path d="M217.016 163.802L206.308 171.511V167.953V160.244V158.465L188.463 164.988V161.43V154.314L159.91 157.279V153.721V146.139L128.978 147.791V144.233V135.339H93.8806V131.781V123.915L61.7587 121.107V117.549V108.125L33.2059 103.91V100.352V91.2463V100.352L89.7166 86.1205V78.4117L35.5603 92.0504L12.981 84.3415V80.7836V71.9825V80.7836L81.3887 71.8888V64.1799L14.7656 73.6677L3.46345 62.994V59.436V52.3202L0.489205 44.6113C-0.105644 54.0991 1.43859 76.9885 12.3838 92.6434C26.0653 112.212 61.1579 128.816 71.2739 133.56C81.3887 138.303 116.482 153.128 128.974 156.686C139.087 159.454 162.761 165.938 176.562 169.732C193.813 174.476 213.45 180.999 217.016 185.15C217.488 184.202 217.213 170.524 217.016 163.802Z" fill="url(#paint25_linear_8139_1282)"/>
<path d="M101.615 224.286L90.9043 206.496V210.054L101.615 227.844V224.286Z" fill="url(#paint26_linear_8139_1282)"/>
<path d="M138.496 191.672C139.045 186.18 139.467 180.94 138.64 175.661L135.522 179.812H138.496V183.37H135.522V186.928V189.893V193.451H130.168L129.573 200.567V204.125H120.65V202.346H116.483L114.103 206.497L111.133 212.426H122.435V204.718V212.426V215.984H112.917V224.286V227.844H103.995V236.739V238.518V242.076L96.2615 242.186V250.378V253.936L86.7428 255.122L32.0166 242.199V250.378L87.3376 263.423V255.048V263.423L95.6631 262.237C95.6631 262.237 106.423 247.487 115.419 235.001C121.077 227.147 126.041 220.189 127.19 218.356C130.168 213.612 137.546 201.16 138.496 191.672Z" fill="url(#paint27_linear_8139_1282)"/>
<path d="M3.46253 48.7626L0.488281 41.0537V44.6116L3.46253 52.3205V48.7626Z" fill="url(#paint28_linear_8139_1282)"/>
<path d="M77.8174 34.5312L81.3865 32.7523V29.1943L77.8174 30.9733V34.5312Z" fill="url(#paint29_linear_8139_1282)"/>
<path d="M77.8163 30.9741L0.488281 29.7881V33.346L77.8163 34.532V30.9741Z" fill="url(#paint30_linear_8139_1282)"/>
<path d="M77.8175 16.7413L13.5762 8.43945V11.9974L77.8175 20.2992V16.7413Z" fill="url(#paint31_linear_8139_1282)"/>
<path d="M81.3854 29.1948L76.0342 28.0089L13.575 19.707L0.488281 29.7878L77.8163 30.9738L81.3854 29.1948Z" fill="url(#paint32_linear_8139_1282)"/>
<path d="M76.0354 20.2999L13.5762 11.998V19.7069L76.0354 28.0087V20.2999Z" fill="url(#paint33_linear_8139_1282)"/>
<path d="M87.3351 13.7764L31.4193 0.137695C25.472 2.70771 13.5762 7.96514 13.5762 8.43953L77.8175 16.7414L87.3351 13.7764Z" fill="url(#paint34_linear_8139_1282)"/>
<path d="M80.1966 48.1697L79.0069 51.1346L76.6299 51.1726V58.8434L79.0081 59.7329L82.4213 38.0889C81.5647 40.3031 80.776 42.375 80.1728 44.0187L80.1966 48.1697Z" fill="url(#paint35_linear_8139_1282)"/>
<path d="M77.8174 20.2992L87.335 17.3343V13.7764L77.8174 16.7413V20.2992Z" fill="url(#paint36_linear_8139_1282)"/>
<path d="M76.0349 42.2404L80.1739 44.0194C80.777 42.3756 81.5658 40.3037 82.4224 38.0895C84.0939 33.7666 86.0248 28.9041 87.3358 25.6368V17.3349L77.8183 20.2999L13.5769 11.998L76.0361 20.2999V28.0087L81.3874 29.1947V32.7526L77.8183 34.5316L0.490234 33.3456L76.0361 34.5316V42.2404H76.0349Z" fill="url(#paint37_linear_8139_1282)"/>
<path d="M135.522 193.451V189.893H130.168V192.858V193.451H135.522Z" fill="url(#paint38_linear_8139_1282)"/>
<path d="M3.46387 59.4367L14.766 70.1105L81.3867 60.6227L79.0086 59.7332L76.6303 58.8438L3.46387 59.4367Z" fill="url(#paint39_linear_8139_1282)"/>
<path d="M135.522 186.927L130.168 189.892H135.522V186.927Z" fill="url(#paint40_linear_8139_1282)"/>
<path d="M130.168 193.45V192.857H127.19C125.011 195.229 120.65 200.093 120.65 200.566H129.573L130.168 193.45Z" fill="url(#paint41_linear_8139_1282)"/>
<path d="M138.496 179.812H135.521V183.37H138.496V179.812Z" fill="url(#paint42_linear_8139_1282)"/>
<path d="M76.0342 34.5317L0.488281 33.3457V41.0545L76.0342 42.2405V34.5317Z" fill="url(#paint43_linear_8139_1282)"/>
<path d="M79.0062 47.5766C79.0062 47.305 79.4595 45.9613 80.1721 44.0187L76.0332 42.2397L0.487305 41.0537L3.46155 48.7626L79.0062 47.5766Z" fill="url(#paint44_linear_8139_1282)"/>
<path d="M129.573 204.124V200.566H120.65V202.345V204.124H129.573Z" fill="url(#paint45_linear_8139_1282)"/>
<path d="M95.6664 120.514L61.7588 117.549V121.107L93.8807 123.915L95.6664 124.072V120.514Z" fill="url(#paint46_linear_8139_1282)"/>
<path d="M63.543 108.389L98.0418 91.4576V87.3066L63.543 104.238V108.389Z" fill="url(#paint47_linear_8139_1282)"/>
<path d="M63.5434 104.238L33.2061 100.353V103.91L61.7588 108.124L63.5434 108.389V104.238Z" fill="url(#paint48_linear_8139_1282)"/>
<path d="M61.7588 108.125V117.549L96.2612 100.946V92.3321L98.0422 91.458L63.5433 108.389L61.7588 108.125Z" fill="url(#paint49_linear_8139_1282)"/>
<path d="M12.9814 80.7842V84.3421L35.5607 92.051V88.493L12.9814 80.7842Z" fill="url(#paint50_linear_8139_1282)"/>
<path d="M63.5434 104.238L98.0422 87.3071L89.7167 86.1211L33.2061 100.353L63.5434 104.238Z" fill="url(#paint51_linear_8139_1282)"/>
<path d="M93.8809 123.916V131.782L106.37 113.992V106.096L95.6666 124.073L93.8809 123.916Z" fill="url(#paint52_linear_8139_1282)"/>
<path d="M95.666 124.072L106.37 106.095L106.965 105.096V101.538L95.666 120.514V124.072Z" fill="url(#paint53_linear_8139_1282)"/>
<path d="M95.6664 120.514L106.965 101.538L96.2612 100.945L61.7588 117.549L95.6664 120.514Z" fill="url(#paint54_linear_8139_1282)"/>
<path d="M3.46387 59.4365V62.9945L14.766 73.6682V70.1103L3.46387 59.4365Z" fill="url(#paint55_linear_8139_1282)"/>
<path d="M76.6304 51.1719L3.46387 52.3211V59.4369L76.6304 58.844V51.1719Z" fill="url(#paint56_linear_8139_1282)"/>
<path d="M14.7656 73.6678L81.3887 64.18V60.6221H81.3864L14.7656 70.1099V73.6678Z" fill="url(#paint57_linear_8139_1282)"/>
<path d="M76.6304 51.1348L3.46387 52.3207L76.6304 51.1715V51.1348Z" fill="url(#paint58_linear_8139_1282)"/>
<path d="M35.5605 92.0511L89.7168 78.4124V74.8545L35.5605 88.4932V92.0511Z" fill="url(#paint59_linear_8139_1282)"/>
<path d="M76.6303 51.1718L79.0074 51.1351V47.5771L3.46387 48.7631V52.3211L76.6303 51.1351V51.1718Z" fill="url(#paint60_linear_8139_1282)"/>
<path d="M35.5607 88.4923L89.717 74.8536L81.3891 71.8887L12.9814 80.7835L35.5607 88.4923Z" fill="url(#paint61_linear_8139_1282)"/>
<path d="M80.1965 48.1695L80.1727 44.0186C79.4589 45.9612 79.0068 47.3049 79.0068 47.5765V51.1344L80.1965 48.1695Z" fill="url(#paint62_linear_8139_1282)"/>
<defs>
<linearGradient id="paint0_linear_8139_1282" x1="126.688" y1="126.487" x2="126.689" y2="126.487" gradientUnits="userSpaceOnUse">
<stop stop-color="#F4C09F"/>
<stop offset="0.1328" stop-color="#F3C7AB"/>
<stop offset="0.3447" stop-color="#F0CEB8"/>
<stop offset="0.5238" stop-color="#F4DCCE"/>
<stop offset="0.6474" stop-color="#F9E5DA"/>
</linearGradient>
<linearGradient id="paint1_linear_8139_1282" x1="126.688" y1="134.47" x2="162.289" y2="134.47" gradientUnits="userSpaceOnUse">
<stop stop-color="#F4C09F"/>
<stop offset="0.1328" stop-color="#F3C7AB"/>
<stop offset="0.3447" stop-color="#F0CEB8"/>
<stop offset="0.5238" stop-color="#F4DCCE"/>
<stop offset="0.6474" stop-color="#F9E5DA"/>
</linearGradient>
<linearGradient id="paint2_linear_8139_1282" x1="117.077" y1="120.239" x2="126.689" y2="120.239" gradientUnits="userSpaceOnUse">
<stop stop-color="#F4C09F"/>
<stop offset="0.1328" stop-color="#F3C7AB"/>
<stop offset="0.3447" stop-color="#F0CEB8"/>
<stop offset="0.5238" stop-color="#F4DCCE"/>
<stop offset="0.6474" stop-color="#F9E5DA"/>
</linearGradient>
<linearGradient id="paint3_linear_8139_1282" x1="86.7419" y1="252.749" x2="96.2607" y2="252.749" gradientUnits="userSpaceOnUse">
<stop stop-color="#F4C09F"/>
<stop offset="0.1328" stop-color="#F3C7AB"/>
<stop offset="0.3447" stop-color="#F0CEB8"/>
<stop offset="0.5238" stop-color="#F4DCCE"/>
<stop offset="0.6474" stop-color="#F9E5DA"/>
</linearGradient>
<linearGradient id="paint4_linear_8139_1282" x1="159.91" y1="148.384" x2="188.463" y2="148.384" gradientUnits="userSpaceOnUse">
<stop stop-color="#F4C09F"/>
<stop offset="0.1328" stop-color="#F3C7AB"/>
<stop offset="0.3447" stop-color="#F0CEB8"/>
<stop offset="0.5238" stop-color="#F4DCCE"/>
<stop offset="0.6474" stop-color="#F9E5DA"/>
</linearGradient>
<linearGradient id="paint5_linear_8139_1282" x1="128.977" y1="145.122" x2="162.289" y2="145.122" gradientUnits="userSpaceOnUse">
<stop stop-color="#F4C09F"/>
<stop offset="0.1328" stop-color="#F3C7AB"/>
<stop offset="0.3447" stop-color="#F0CEB8"/>
<stop offset="0.5238" stop-color="#F4DCCE"/>
<stop offset="0.6474" stop-color="#F9E5DA"/>
</linearGradient>
<linearGradient id="paint6_linear_8139_1282" x1="188.463" y1="156.982" x2="206.308" y2="156.982" gradientUnits="userSpaceOnUse">
<stop stop-color="#F4C09F"/>
<stop offset="0.1328" stop-color="#F3C7AB"/>
<stop offset="0.3447" stop-color="#F0CEB8"/>
<stop offset="0.5238" stop-color="#F4DCCE"/>
<stop offset="0.6474" stop-color="#F9E5DA"/>
</linearGradient>
<linearGradient id="paint7_linear_8139_1282" x1="206.308" y1="164.098" x2="217.016" y2="164.098" gradientUnits="userSpaceOnUse">
<stop stop-color="#F4C09F"/>
<stop offset="0.1328" stop-color="#F3C7AB"/>
<stop offset="0.3447" stop-color="#F0CEB8"/>
<stop offset="0.5238" stop-color="#F4DCCE"/>
<stop offset="0.6474" stop-color="#F9E5DA"/>
</linearGradient>
<linearGradient id="paint8_linear_8139_1282" x1="159.91" y1="154.017" x2="188.463" y2="154.017" gradientUnits="userSpaceOnUse">
<stop stop-color="#F4C09F"/>
<stop offset="0.1328" stop-color="#F3C7AB"/>
<stop offset="0.3447" stop-color="#F0CEB8"/>
<stop offset="0.5238" stop-color="#F4DCCE"/>
<stop offset="0.6474" stop-color="#F9E5DA"/>
</linearGradient>
<linearGradient id="paint9_linear_8139_1282" x1="101.615" y1="226.065" x2="112.917" y2="226.065" gradientUnits="userSpaceOnUse">
<stop stop-color="#F4C09F"/>
<stop offset="0.1328" stop-color="#F3C7AB"/>
<stop offset="0.3447" stop-color="#F0CEB8"/>
<stop offset="0.5238" stop-color="#F4DCCE"/>
<stop offset="0.6474" stop-color="#F9E5DA"/>
</linearGradient>
<linearGradient id="paint10_linear_8139_1282" x1="206.308" y1="165.877" x2="217.016" y2="165.877" gradientUnits="userSpaceOnUse">
<stop stop-color="#F4C09F"/>
<stop offset="0.1328" stop-color="#F3C7AB"/>
<stop offset="0.3447" stop-color="#F0CEB8"/>
<stop offset="0.5238" stop-color="#F4DCCE"/>
<stop offset="0.6474" stop-color="#F9E5DA"/>
</linearGradient>
<linearGradient id="paint11_linear_8139_1282" x1="111.133" y1="214.205" x2="122.435" y2="214.205" gradientUnits="userSpaceOnUse">
<stop stop-color="#F4C09F"/>
<stop offset="0.1328" stop-color="#F3C7AB"/>
<stop offset="0.3447" stop-color="#F0CEB8"/>
<stop offset="0.5238" stop-color="#F4DCCE"/>
<stop offset="0.6474" stop-color="#F9E5DA"/>
</linearGradient>
<linearGradient id="paint12_linear_8139_1282" x1="90.9042" y1="215.391" x2="114.103" y2="215.391" gradientUnits="userSpaceOnUse">
<stop stop-color="#F4C09F"/>
<stop offset="0.1328" stop-color="#F3C7AB"/>
<stop offset="0.3447" stop-color="#F0CEB8"/>
<stop offset="0.5238" stop-color="#F4DCCE"/>
<stop offset="0.6474" stop-color="#F9E5DA"/>
</linearGradient>
<linearGradient id="paint13_linear_8139_1282" x1="126.69" y1="135.36" x2="162.29" y2="135.36" gradientUnits="userSpaceOnUse">
<stop stop-color="#F4C09F"/>
<stop offset="0.1328" stop-color="#F3C7AB"/>
<stop offset="0.3447" stop-color="#F0CEB8"/>
<stop offset="0.5238" stop-color="#F4DCCE"/>
<stop offset="0.6474" stop-color="#F9E5DA"/>
</linearGradient>
<linearGradient id="paint14_linear_8139_1282" x1="93.8806" y1="133.559" x2="130.762" y2="133.559" gradientUnits="userSpaceOnUse">
<stop stop-color="#F4C09F"/>
<stop offset="0.1328" stop-color="#F3C7AB"/>
<stop offset="0.3447" stop-color="#F0CEB8"/>
<stop offset="0.5238" stop-color="#F4DCCE"/>
<stop offset="0.6474" stop-color="#F9E5DA"/>
</linearGradient>
<linearGradient id="paint15_linear_8139_1282" x1="188.463" y1="159.948" x2="206.308" y2="159.948" gradientUnits="userSpaceOnUse">
<stop stop-color="#F4C09F"/>
<stop offset="0.1328" stop-color="#F3C7AB"/>
<stop offset="0.3447" stop-color="#F0CEB8"/>
<stop offset="0.5238" stop-color="#F4DCCE"/>
<stop offset="0.6474" stop-color="#F9E5DA"/>
</linearGradient>
<linearGradient id="paint16_linear_8139_1282" x1="32.0164" y1="246.882" x2="86.7425" y2="246.882" gradientUnits="userSpaceOnUse">
<stop stop-color="#F4C09F"/>
<stop offset="0.1328" stop-color="#F3C7AB"/>
<stop offset="0.3447" stop-color="#F0CEB8"/>
<stop offset="0.5238" stop-color="#F4DCCE"/>
<stop offset="0.6474" stop-color="#F9E5DA"/>
</linearGradient>
<linearGradient id="paint17_linear_8139_1282" x1="57.5927" y1="229.389" x2="103.994" y2="229.389" gradientUnits="userSpaceOnUse">
<stop stop-color="#F4C09F"/>
<stop offset="0.1328" stop-color="#F3C7AB"/>
<stop offset="0.3447" stop-color="#F0CEB8"/>
<stop offset="0.5238" stop-color="#F4DCCE"/>
<stop offset="0.6474" stop-color="#F9E5DA"/>
</linearGradient>
<linearGradient id="paint18_linear_8139_1282" x1="93.8806" y1="122.886" x2="130.762" y2="122.886" gradientUnits="userSpaceOnUse">
<stop stop-color="#F4C09F"/>
<stop offset="0.1328" stop-color="#F3C7AB"/>
<stop offset="0.3447" stop-color="#F0CEB8"/>
<stop offset="0.5238" stop-color="#F4DCCE"/>
<stop offset="0.6474" stop-color="#F9E5DA"/>
</linearGradient>
<linearGradient id="paint19_linear_8139_1282" x1="32.0164" y1="242.372" x2="96.2613" y2="242.372" gradientUnits="userSpaceOnUse">
<stop stop-color="#F4C09F"/>
<stop offset="0.1328" stop-color="#F3C7AB"/>
<stop offset="0.3447" stop-color="#F0CEB8"/>
<stop offset="0.5238" stop-color="#F4DCCE"/>
<stop offset="0.6474" stop-color="#F9E5DA"/>
</linearGradient>
<linearGradient id="paint20_linear_8139_1282" x1="57.5927" y1="231.465" x2="95.2854" y2="231.465" gradientUnits="userSpaceOnUse">
<stop stop-color="#F4C09F"/>
<stop offset="0.1328" stop-color="#F3C7AB"/>
<stop offset="0.3447" stop-color="#F0CEB8"/>
<stop offset="0.5238" stop-color="#F4DCCE"/>
<stop offset="0.6474" stop-color="#F9E5DA"/>
</linearGradient>
<linearGradient id="paint21_linear_8139_1282" x1="57.5927" y1="237.332" x2="96.2613" y2="237.332" gradientUnits="userSpaceOnUse">
<stop stop-color="#F4C09F"/>
<stop offset="0.1328" stop-color="#F3C7AB"/>
<stop offset="0.3447" stop-color="#F0CEB8"/>
<stop offset="0.5238" stop-color="#F4DCCE"/>
<stop offset="0.6474" stop-color="#F9E5DA"/>
</linearGradient>
<linearGradient id="paint22_linear_8139_1282" x1="90.9042" y1="223.396" x2="103.994" y2="223.396" gradientUnits="userSpaceOnUse">
<stop stop-color="#F4C09F"/>
<stop offset="0.1328" stop-color="#F3C7AB"/>
<stop offset="0.3447" stop-color="#F0CEB8"/>
<stop offset="0.5238" stop-color="#F4DCCE"/>
<stop offset="0.6474" stop-color="#F9E5DA"/>
</linearGradient>
<linearGradient id="paint23_linear_8139_1282" x1="95.2848" y1="240.359" x2="103.994" y2="240.359" gradientUnits="userSpaceOnUse">
<stop stop-color="#F4C09F"/>
<stop offset="0.1328" stop-color="#F3C7AB"/>
<stop offset="0.3447" stop-color="#F0CEB8"/>
<stop offset="0.5238" stop-color="#F4DCCE"/>
<stop offset="0.6474" stop-color="#F9E5DA"/>
</linearGradient>
<linearGradient id="paint24_linear_8139_1282" x1="115.419" y1="195.844" x2="217.015" y2="195.844" gradientUnits="userSpaceOnUse">
<stop stop-color="#F4C09F"/>
<stop offset="0.1328" stop-color="#F3C7AB"/>
<stop offset="0.3447" stop-color="#F0CEB8"/>
<stop offset="0.5238" stop-color="#F4DCCE"/>
<stop offset="0.6474" stop-color="#F9E5DA"/>
</linearGradient>
<linearGradient id="paint25_linear_8139_1282" x1="0.379753" y1="114.881" x2="217.277" y2="114.881" gradientUnits="userSpaceOnUse">
<stop stop-color="#F4C09F"/>
<stop offset="0.1328" stop-color="#F3C7AB"/>
<stop offset="0.3447" stop-color="#F0CEB8"/>
<stop offset="0.5238" stop-color="#F4DCCE"/>
<stop offset="0.6474" stop-color="#F9E5DA"/>
</linearGradient>
<linearGradient id="paint26_linear_8139_1282" x1="90.9042" y1="217.17" x2="101.615" y2="217.17" gradientUnits="userSpaceOnUse">
<stop stop-color="#F4C09F"/>
<stop offset="0.1328" stop-color="#F3C7AB"/>
<stop offset="0.3447" stop-color="#F0CEB8"/>
<stop offset="0.5238" stop-color="#F4DCCE"/>
<stop offset="0.6474" stop-color="#F9E5DA"/>
</linearGradient>
<linearGradient id="paint27_linear_8139_1282" x1="32.0164" y1="219.542" x2="139.104" y2="219.542" gradientUnits="userSpaceOnUse">
<stop stop-color="#F4C09F"/>
<stop offset="0.1328" stop-color="#F3C7AB"/>
<stop offset="0.3447" stop-color="#F0CEB8"/>
<stop offset="0.5238" stop-color="#F4DCCE"/>
<stop offset="0.6474" stop-color="#F9E5DA"/>
</linearGradient>
<linearGradient id="paint28_linear_8139_1282" x1="0.488043" y1="46.6866" x2="3.46229" y2="46.6866" gradientUnits="userSpaceOnUse">
<stop stop-color="#F4C09F"/>
<stop offset="0.1328" stop-color="#F3C7AB"/>
<stop offset="0.3447" stop-color="#F0CEB8"/>
<stop offset="0.5238" stop-color="#F4DCCE"/>
<stop offset="0.6474" stop-color="#F9E5DA"/>
</linearGradient>
<linearGradient id="paint29_linear_8139_1282" x1="77.8173" y1="31.8623" x2="81.3863" y2="31.8623" gradientUnits="userSpaceOnUse">
<stop stop-color="#F4C09F"/>
<stop offset="0.1328" stop-color="#F3C7AB"/>
<stop offset="0.3447" stop-color="#F0CEB8"/>
<stop offset="0.5238" stop-color="#F4DCCE"/>
<stop offset="0.6474" stop-color="#F9E5DA"/>
</linearGradient>
<linearGradient id="paint30_linear_8139_1282" x1="0.488043" y1="32.1596" x2="77.8162" y2="32.1596" gradientUnits="userSpaceOnUse">
<stop stop-color="#F4C09F"/>
<stop offset="0.1328" stop-color="#F3C7AB"/>
<stop offset="0.3447" stop-color="#F0CEB8"/>
<stop offset="0.5238" stop-color="#F4DCCE"/>
<stop offset="0.6474" stop-color="#F9E5DA"/>
</linearGradient>
<linearGradient id="paint31_linear_8139_1282" x1="13.5759" y1="14.3689" x2="77.8174" y2="14.3689" gradientUnits="userSpaceOnUse">
<stop stop-color="#F4C09F"/>
<stop offset="0.1328" stop-color="#F3C7AB"/>
<stop offset="0.3447" stop-color="#F0CEB8"/>
<stop offset="0.5238" stop-color="#F4DCCE"/>
<stop offset="0.6474" stop-color="#F9E5DA"/>
</linearGradient>
<linearGradient id="paint32_linear_8139_1282" x1="0.488043" y1="25.3399" x2="81.3853" y2="25.3399" gradientUnits="userSpaceOnUse">
<stop stop-color="#F4C09F"/>
<stop offset="0.1328" stop-color="#F3C7AB"/>
<stop offset="0.3447" stop-color="#F0CEB8"/>
<stop offset="0.5238" stop-color="#F4DCCE"/>
<stop offset="0.6474" stop-color="#F9E5DA"/>
</linearGradient>
<linearGradient id="paint33_linear_8139_1282" x1="13.5759" y1="20.0029" x2="76.0351" y2="20.0029" gradientUnits="userSpaceOnUse">
<stop stop-color="#F4C09F"/>
<stop offset="0.1328" stop-color="#F3C7AB"/>
<stop offset="0.3447" stop-color="#F0CEB8"/>
<stop offset="0.5238" stop-color="#F4DCCE"/>
<stop offset="0.6474" stop-color="#F9E5DA"/>
</linearGradient>
<linearGradient id="paint34_linear_8139_1282" x1="13.5759" y1="8.43905" x2="87.335" y2="8.43905" gradientUnits="userSpaceOnUse">
<stop stop-color="#F4C09F"/>
<stop offset="0.1328" stop-color="#F3C7AB"/>
<stop offset="0.3447" stop-color="#F0CEB8"/>
<stop offset="0.5238" stop-color="#F4DCCE"/>
<stop offset="0.6474" stop-color="#F9E5DA"/>
</linearGradient>
<linearGradient id="paint35_linear_8139_1282" x1="76.6296" y1="48.9104" x2="82.4213" y2="48.9104" gradientUnits="userSpaceOnUse">
<stop stop-color="#F4C09F"/>
<stop offset="0.1328" stop-color="#F3C7AB"/>
<stop offset="0.3447" stop-color="#F0CEB8"/>
<stop offset="0.5238" stop-color="#F4DCCE"/>
<stop offset="0.6474" stop-color="#F9E5DA"/>
</linearGradient>
<linearGradient id="paint36_linear_8139_1282" x1="77.8173" y1="17.0373" x2="87.3348" y2="17.0373" gradientUnits="userSpaceOnUse">
<stop stop-color="#F4C09F"/>
<stop offset="0.1328" stop-color="#F3C7AB"/>
<stop offset="0.3447" stop-color="#F0CEB8"/>
<stop offset="0.5238" stop-color="#F4DCCE"/>
<stop offset="0.6474" stop-color="#F9E5DA"/>
</linearGradient>
<linearGradient id="paint37_linear_8139_1282" x1="0.488807" y1="28.0082" x2="87.3345" y2="28.0082" gradientUnits="userSpaceOnUse">
<stop stop-color="#F4C09F"/>
<stop offset="0.1328" stop-color="#F3C7AB"/>
<stop offset="0.3447" stop-color="#F0CEB8"/>
<stop offset="0.5238" stop-color="#F4DCCE"/>
<stop offset="0.6474" stop-color="#F9E5DA"/>
</linearGradient>
<linearGradient id="paint38_linear_8139_1282" x1="130.168" y1="191.672" x2="135.521" y2="191.672" gradientUnits="userSpaceOnUse">
<stop stop-color="#F4C09F"/>
<stop offset="0.1328" stop-color="#F3C7AB"/>
<stop offset="0.3447" stop-color="#F0CEB8"/>
<stop offset="0.5238" stop-color="#F4DCCE"/>
<stop offset="0.6474" stop-color="#F9E5DA"/>
</linearGradient>
<linearGradient id="paint39_linear_8139_1282" x1="3.46363" y1="64.4767" x2="81.3866" y2="64.4767" gradientUnits="userSpaceOnUse">
<stop stop-color="#F4C09F"/>
<stop offset="0.1328" stop-color="#F3C7AB"/>
<stop offset="0.3447" stop-color="#F0CEB8"/>
<stop offset="0.5238" stop-color="#F4DCCE"/>
<stop offset="0.6474" stop-color="#F9E5DA"/>
</linearGradient>
<linearGradient id="paint40_linear_8139_1282" x1="130.168" y1="188.409" x2="135.521" y2="188.409" gradientUnits="userSpaceOnUse">
<stop stop-color="#F4C09F"/>
<stop offset="0.1328" stop-color="#F3C7AB"/>
<stop offset="0.3447" stop-color="#F0CEB8"/>
<stop offset="0.5238" stop-color="#F4DCCE"/>
<stop offset="0.6474" stop-color="#F9E5DA"/>
</linearGradient>
<linearGradient id="paint41_linear_8139_1282" x1="120.65" y1="196.712" x2="130.168" y2="196.712" gradientUnits="userSpaceOnUse">
<stop stop-color="#F4C09F"/>
<stop offset="0.1328" stop-color="#F3C7AB"/>
<stop offset="0.3447" stop-color="#F0CEB8"/>
<stop offset="0.5238" stop-color="#F4DCCE"/>
<stop offset="0.6474" stop-color="#F9E5DA"/>
</linearGradient>
<linearGradient id="paint42_linear_8139_1282" x1="135.521" y1="181.592" x2="138.496" y2="181.592" gradientUnits="userSpaceOnUse">
<stop stop-color="#F4C09F"/>
<stop offset="0.1328" stop-color="#F3C7AB"/>
<stop offset="0.3447" stop-color="#F0CEB8"/>
<stop offset="0.5238" stop-color="#F4DCCE"/>
<stop offset="0.6474" stop-color="#F9E5DA"/>
</linearGradient>
<linearGradient id="paint43_linear_8139_1282" x1="0.488043" y1="37.7926" x2="76.0339" y2="37.7926" gradientUnits="userSpaceOnUse">
<stop stop-color="#F4C09F"/>
<stop offset="0.1328" stop-color="#F3C7AB"/>
<stop offset="0.3447" stop-color="#F0CEB8"/>
<stop offset="0.5238" stop-color="#F4DCCE"/>
<stop offset="0.6474" stop-color="#F9E5DA"/>
</linearGradient>
<linearGradient id="paint44_linear_8139_1282" x1="0.488256" y1="44.9077" x2="80.1725" y2="44.9077" gradientUnits="userSpaceOnUse">
<stop stop-color="#F4C09F"/>
<stop offset="0.1328" stop-color="#F3C7AB"/>
<stop offset="0.3447" stop-color="#F0CEB8"/>
<stop offset="0.5238" stop-color="#F4DCCE"/>
<stop offset="0.6474" stop-color="#F9E5DA"/>
</linearGradient>
<linearGradient id="paint45_linear_8139_1282" x1="120.65" y1="202.345" x2="129.573" y2="202.345" gradientUnits="userSpaceOnUse">
<stop stop-color="#F4C09F"/>
<stop offset="0.1328" stop-color="#F3C7AB"/>
<stop offset="0.3447" stop-color="#F0CEB8"/>
<stop offset="0.5238" stop-color="#F4DCCE"/>
<stop offset="0.6474" stop-color="#F9E5DA"/>
</linearGradient>
<linearGradient id="paint46_linear_8139_1282" x1="61.7586" y1="120.81" x2="95.6662" y2="120.81" gradientUnits="userSpaceOnUse">
<stop stop-color="#F4C09F"/>
<stop offset="0.1328" stop-color="#F3C7AB"/>
<stop offset="0.3447" stop-color="#F0CEB8"/>
<stop offset="0.5238" stop-color="#F4DCCE"/>
<stop offset="0.6474" stop-color="#F9E5DA"/>
</linearGradient>
<linearGradient id="paint47_linear_8139_1282" x1="63.5427" y1="97.8474" x2="98.0417" y2="97.8474" gradientUnits="userSpaceOnUse">
<stop stop-color="#F4C09F"/>
<stop offset="0.1328" stop-color="#F3C7AB"/>
<stop offset="0.3447" stop-color="#F0CEB8"/>
<stop offset="0.5238" stop-color="#F4DCCE"/>
<stop offset="0.6474" stop-color="#F9E5DA"/>
</linearGradient>
<linearGradient id="paint48_linear_8139_1282" x1="33.2058" y1="104.37" x2="63.5431" y2="104.37" gradientUnits="userSpaceOnUse">
<stop stop-color="#F4C09F"/>
<stop offset="0.1328" stop-color="#F3C7AB"/>
<stop offset="0.3447" stop-color="#F0CEB8"/>
<stop offset="0.5238" stop-color="#F4DCCE"/>
<stop offset="0.6474" stop-color="#F9E5DA"/>
</linearGradient>
<linearGradient id="paint49_linear_8139_1282" x1="61.7586" y1="104.503" x2="98.0421" y2="104.503" gradientUnits="userSpaceOnUse">
<stop stop-color="#F4C09F"/>
<stop offset="0.1328" stop-color="#F3C7AB"/>
<stop offset="0.3447" stop-color="#F0CEB8"/>
<stop offset="0.5238" stop-color="#F4DCCE"/>
<stop offset="0.6474" stop-color="#F9E5DA"/>
</linearGradient>
<linearGradient id="paint50_linear_8139_1282" x1="12.9812" y1="86.4171" x2="35.5611" y2="86.4171" gradientUnits="userSpaceOnUse">
<stop stop-color="#F4C09F"/>
<stop offset="0.1328" stop-color="#F3C7AB"/>
<stop offset="0.3447" stop-color="#F0CEB8"/>
<stop offset="0.5238" stop-color="#F4DCCE"/>
<stop offset="0.6474" stop-color="#F9E5DA"/>
</linearGradient>
<linearGradient id="paint51_linear_8139_1282" x1="33.2058" y1="95.1793" x2="98.0421" y2="95.1793" gradientUnits="userSpaceOnUse">
<stop stop-color="#F4C09F"/>
<stop offset="0.1328" stop-color="#F3C7AB"/>
<stop offset="0.3447" stop-color="#F0CEB8"/>
<stop offset="0.5238" stop-color="#F4DCCE"/>
<stop offset="0.6474" stop-color="#F9E5DA"/>
</linearGradient>
<linearGradient id="paint52_linear_8139_1282" x1="93.8806" y1="118.939" x2="106.37" y2="118.939" gradientUnits="userSpaceOnUse">
<stop stop-color="#F4C09F"/>
<stop offset="0.1328" stop-color="#F3C7AB"/>
<stop offset="0.3447" stop-color="#F0CEB8"/>
<stop offset="0.5238" stop-color="#F4DCCE"/>
<stop offset="0.6474" stop-color="#F9E5DA"/>
</linearGradient>
<linearGradient id="paint53_linear_8139_1282" x1="95.6658" y1="112.804" x2="106.964" y2="112.804" gradientUnits="userSpaceOnUse">
<stop stop-color="#F4C09F"/>
<stop offset="0.1328" stop-color="#F3C7AB"/>
<stop offset="0.3447" stop-color="#F0CEB8"/>
<stop offset="0.5238" stop-color="#F4DCCE"/>
<stop offset="0.6474" stop-color="#F9E5DA"/>
</linearGradient>
<linearGradient id="paint54_linear_8139_1282" x1="61.7586" y1="110.729" x2="106.965" y2="110.729" gradientUnits="userSpaceOnUse">
<stop stop-color="#F4C09F"/>
<stop offset="0.1328" stop-color="#F3C7AB"/>
<stop offset="0.3447" stop-color="#F0CEB8"/>
<stop offset="0.5238" stop-color="#F4DCCE"/>
<stop offset="0.6474" stop-color="#F9E5DA"/>
</linearGradient>
<linearGradient id="paint55_linear_8139_1282" x1="3.46363" y1="66.5519" x2="14.7658" y2="66.5519" gradientUnits="userSpaceOnUse">
<stop stop-color="#F4C09F"/>
<stop offset="0.1328" stop-color="#F3C7AB"/>
<stop offset="0.3447" stop-color="#F0CEB8"/>
<stop offset="0.5238" stop-color="#F4DCCE"/>
<stop offset="0.6474" stop-color="#F9E5DA"/>
</linearGradient>
<linearGradient id="paint56_linear_8139_1282" x1="3.46363" y1="55.3046" x2="76.6301" y2="55.3046" gradientUnits="userSpaceOnUse">
<stop stop-color="#F4C09F"/>
<stop offset="0.1328" stop-color="#F3C7AB"/>
<stop offset="0.3447" stop-color="#F0CEB8"/>
<stop offset="0.5238" stop-color="#F4DCCE"/>
<stop offset="0.6474" stop-color="#F9E5DA"/>
</linearGradient>
<linearGradient id="paint57_linear_8139_1282" x1="14.7654" y1="67.1445" x2="81.3885" y2="67.1445" gradientUnits="userSpaceOnUse">
<stop stop-color="#F4C09F"/>
<stop offset="0.1328" stop-color="#F3C7AB"/>
<stop offset="0.3447" stop-color="#F0CEB8"/>
<stop offset="0.5238" stop-color="#F4DCCE"/>
<stop offset="0.6474" stop-color="#F9E5DA"/>
</linearGradient>
<linearGradient id="paint58_linear_8139_1282" x1="3.46363" y1="51.7273" x2="76.6301" y2="51.7273" gradientUnits="userSpaceOnUse">
<stop stop-color="#F4C09F"/>
<stop offset="0.1328" stop-color="#F3C7AB"/>
<stop offset="0.3447" stop-color="#F0CEB8"/>
<stop offset="0.5238" stop-color="#F4DCCE"/>
<stop offset="0.6474" stop-color="#F9E5DA"/>
</linearGradient>
<linearGradient id="paint59_linear_8139_1282" x1="35.5609" y1="83.4523" x2="89.7166" y2="83.4523" gradientUnits="userSpaceOnUse">
<stop stop-color="#F4C09F"/>
<stop offset="0.1328" stop-color="#F3C7AB"/>
<stop offset="0.3447" stop-color="#F0CEB8"/>
<stop offset="0.5238" stop-color="#F4DCCE"/>
<stop offset="0.6474" stop-color="#F9E5DA"/>
</linearGradient>
<linearGradient id="paint60_linear_8139_1282" x1="3.46363" y1="49.9486" x2="79.0072" y2="49.9486" gradientUnits="userSpaceOnUse">
<stop stop-color="#F4C09F"/>
<stop offset="0.1328" stop-color="#F3C7AB"/>
<stop offset="0.3447" stop-color="#F0CEB8"/>
<stop offset="0.5238" stop-color="#F4DCCE"/>
<stop offset="0.6474" stop-color="#F9E5DA"/>
</linearGradient>
<linearGradient id="paint61_linear_8139_1282" x1="12.9812" y1="80.19" x2="89.7168" y2="80.19" gradientUnits="userSpaceOnUse">
<stop stop-color="#F4C09F"/>
<stop offset="0.1328" stop-color="#F3C7AB"/>
<stop offset="0.3447" stop-color="#F0CEB8"/>
<stop offset="0.5238" stop-color="#F4DCCE"/>
<stop offset="0.6474" stop-color="#F9E5DA"/>
</linearGradient>
<linearGradient id="paint62_linear_8139_1282" x1="79.0067" y1="47.576" x2="80.1964" y2="47.576" gradientUnits="userSpaceOnUse">
<stop stop-color="#F4C09F"/>
<stop offset="0.1328" stop-color="#F3C7AB"/>
<stop offset="0.3447" stop-color="#F0CEB8"/>
<stop offset="0.5238" stop-color="#F4DCCE"/>
<stop offset="0.6474" stop-color="#F9E5DA"/>
</linearGradient>
</defs>
</svg>
