<svg width="219" height="266" viewBox="0 0 219 266" fill="none" xmlns="http://www.w3.org/2000/svg">
<path d="M87.8347 264.986L32.5136 251.94V243.761M87.8347 264.986V256.61M87.8347 264.986L96.1596 263.8C96.1596 263.8 106.919 249.05 115.916 236.563M32.5136 243.761V240.203M32.5136 243.761L87.2398 256.684M61.0663 234.743L96.7575 251.94M61.0663 234.743V227.263M61.0663 234.743L32.5136 240.203M96.7575 251.94V243.748M96.7575 251.94V255.498L87.2398 256.684M96.7575 251.94L87.2398 253.126M94.378 221.698L104.491 238.301M94.378 221.698L58.0892 222.291M94.378 221.698V216.562M104.491 238.301V229.407M104.491 238.301V240.08M62.256 119.111L96.7575 102.507M62.256 119.111V109.687M62.256 119.111L96.1626 122.076M62.256 119.111V122.669L94.378 125.478M96.7575 102.507V93.8937M96.7575 102.507L107.462 103.1M33.7033 101.914L90.2141 87.6825M33.7033 101.914V92.8085M33.7033 101.914L64.0406 105.799M33.7033 101.914V105.472L64.0406 109.95M90.2141 87.6825V79.9736M90.2141 87.6825L98.539 88.8684M90.2141 79.9736L36.0579 93.6123M90.2141 79.9736V76.4157M13.4784 82.3456L81.8861 73.4508M13.4784 82.3456V73.5444M13.4784 82.3456L36.0579 90.0544M13.4784 82.3456V85.9035L36.0579 93.6123M81.8861 73.4508V65.7419M81.8861 73.4508L90.2141 76.4157M81.8861 65.7419V62.184H81.8832M81.8861 65.7419L15.2629 75.2297M3.96081 60.998L77.1273 60.405M3.96081 60.998V53.8822M3.96081 60.998L15.2629 71.6718M3.96081 60.998V64.5559L15.2629 75.2297M77.1273 60.405V52.6962L3.96081 53.8822M77.1273 60.405L79.5052 61.2945M3.96081 53.8822L0.986559 46.1733M3.96081 53.8822V50.3242M3.96081 53.8822L79.5038 52.6962M0.986559 42.6154L76.5324 43.8014M0.986559 42.6154V34.9065M0.986559 42.6154L3.96081 50.3242M0.986559 42.6154V46.1733M76.5324 43.8014V36.0925L0.986559 34.9065M76.5324 43.8014L80.6705 45.5803M0.986559 34.9065V31.3486M0.986559 34.9065L78.3141 36.0925M14.0732 21.2678L76.5324 29.5696M14.0732 21.2678V13.559M14.0732 21.2678L0.986559 31.3486M76.5324 29.5696V21.8608L14.0732 13.559M76.5324 29.5696L81.8832 30.7556M14.0732 13.559V10.001M14.0732 13.559L78.3141 21.8608M131.259 133.343V136.9H129.474M131.259 133.343H94.378M131.259 133.343L117.574 115.553H106.867M94.378 133.343V136.9H129.474M94.378 133.343V125.478M94.378 133.343L106.867 115.553M162.786 144.016L129.474 145.795M162.786 144.016V144.609M162.786 144.016L127.092 128.006M129.474 145.795V149.353L160.407 147.701M129.474 145.795V136.9M96.1626 125.634V122.076M96.1626 125.634L94.378 125.478M96.1626 125.634L106.867 107.657M96.1626 122.076L107.462 103.1M64.0406 109.95V105.799M64.0406 109.95L98.539 93.0194V88.8684M64.0406 105.799L98.539 88.8684M36.0579 93.6123V90.0544M36.0579 90.0544L90.2141 76.4157M15.2629 75.2297V71.6718M15.2629 71.6718L81.8832 62.184M0.986559 46.1733C0.390741 55.6611 1.93541 78.5505 12.8806 94.2053C26.5622 113.774 61.6552 130.378 71.7706 135.121C81.8861 139.865 116.979 154.69 129.471 158.248M3.96081 50.3242L79.5038 49.1383M188.959 155.876L160.407 158.841V155.283M188.959 155.876V154.097M188.959 155.876V162.992M188.959 152.318L160.407 155.283M188.959 152.318V154.097M188.959 152.318L162.786 144.609M160.407 155.283V147.701M206.805 160.027L188.959 166.55V162.992M206.805 160.027V156.469M206.805 160.027V161.806M206.805 156.469L188.959 162.992M206.805 156.469L188.959 154.097M217.512 165.364L206.805 173.073V169.515M217.512 165.364V161.806M217.512 165.364C217.709 172.084 217.985 185.763 217.512 186.711M217.512 161.806L206.805 169.515M217.512 161.806H206.805M206.805 169.515V161.806M122.931 213.989V217.547H113.413M122.931 213.989H111.629M122.931 213.989V206.28M111.629 213.989V217.547H113.413M111.629 213.989L114.6 208.059M130.069 202.129V205.687H121.146V203.908M130.069 202.129H121.146M130.069 202.129L130.664 195.013M121.146 202.129V203.908M121.146 202.129C121.146 201.655 125.507 196.792 127.687 194.42H130.664M130.664 195.013H136.018V191.455M130.664 195.013V194.42M136.018 191.455H130.664M136.018 191.455V188.49M130.664 191.455V194.42M130.664 191.455L136.018 188.49M136.018 184.932H138.992V181.375H136.018M136.018 184.932V181.375M136.018 184.932V188.49M136.018 181.375L139.136 177.224M102.111 229.407H113.413V225.849M102.111 229.407V225.849M102.111 229.407L91.4008 211.617V208.059M113.413 225.849H102.111M113.413 225.849V217.547M102.111 225.849L91.4008 208.059M95.7821 243.761L104.491 243.638V240.08M95.7821 243.761V240.203M95.7821 243.761L58.0892 225.849V222.291M104.491 240.08L95.7821 240.203M95.7821 240.203L58.0892 222.291M87.2398 256.684V253.126M87.2398 253.126L32.5136 240.203M107.462 103.1V106.658L106.867 107.657M91.4008 208.059H114.6M0.986559 31.3486L78.3141 32.5346M78.3141 36.0925V32.5346M78.3141 36.0925L81.8832 34.3136V30.7556M78.3141 32.5346L81.8832 30.7556M14.0732 10.001L78.3141 18.3029M14.0732 10.001C14.0732 9.52666 25.9682 4.26883 31.9157 1.69922L87.8317 15.3379M78.3141 21.8608V18.3029M78.3141 21.8608L87.8317 18.8959M78.3141 18.3029L87.8317 15.3379M79.5038 52.6962V49.1383M79.5038 52.6962L80.6934 49.7312L80.6705 45.5803M79.5038 49.1383C79.5038 48.867 79.9575 47.5231 80.6705 45.5803M87.8317 18.8959V15.3379M87.8317 18.8959V27.1977C86.5207 30.4648 84.5907 35.3277 82.9187 39.6504M114.6 208.059L116.979 203.908H121.146M129.471 158.248C135.538 164.933 138.177 171.105 139.136 177.224M129.471 158.248C139.584 161.015 163.258 167.499 177.059 171.294C194.31 176.038 213.947 182.561 217.512 186.711M139.136 177.224C139.964 182.503 139.542 187.741 138.992 193.234C138.043 202.722 130.664 215.175 127.687 219.919C126.537 221.75 121.575 228.709 115.916 236.563M115.916 236.563C116.767 236.531 144.934 218.14 152.67 213.989C160.407 209.838 169.326 203.908 191.335 197.978C213.345 192.048 216.921 187.897 217.512 186.711M160.407 147.701L162.786 147.574V144.609M106.867 115.553V107.657M81.8832 62.184L79.5052 61.2945M79.5052 61.2945L82.9187 39.6504M82.9187 39.6504C82.0623 41.8644 81.2736 43.9367 80.6705 45.5803" stroke="#202020" stroke-width="1.5"/>
</svg>
