<svg width="252" height="267" viewBox="0 0 252 267" fill="none" xmlns="http://www.w3.org/2000/svg">
<path d="M46.0505 64.6537L139.303 47.6216M46.0505 64.6537V77.2427M46.0505 64.6537L30.5084 57.989M139.303 47.6216V59.47M139.303 47.6216L123.761 40.2163M139.303 59.47L46.0505 77.2427M139.303 59.47L152.625 68.3563M46.0505 77.2427L59.3723 85.3884M30.5084 45.4L123.761 28.3679M30.5084 45.4V57.989M30.5084 45.4L16.4465 37.9948M123.761 28.3679V40.2163M123.761 28.3679L109.699 20.2221M123.761 40.2163L30.5084 57.989M16.4465 25.4058L109.699 8.37372M16.4465 25.4058V37.9948M16.4465 25.4058L1.64453 18.0006M109.699 8.37372V20.2221M109.699 8.37372L94.157 1.70898L1.64453 18.0006M109.699 20.2221L16.4465 37.9948M59.3723 85.3884L152.625 68.3563M59.3723 85.3884V97.9774M152.625 68.3563V80.2048M152.625 80.2048L59.3723 97.9774M152.625 80.2048L168.167 88.3505M59.3723 97.9774L74.9144 105.383M74.9144 105.383L168.167 88.3505M74.9144 105.383V117.972M168.167 88.3505V100.199M168.167 100.199L74.9144 117.972M168.167 100.199L180.749 106.864M74.9144 117.972L87.4961 123.896M87.4961 123.896L180.749 106.864M87.4961 123.896V136.485M180.749 106.864V118.712M180.749 118.712L87.4961 136.485M180.749 118.712L202.952 130.561M87.4961 136.485L94.157 140.928M94.157 140.928L202.952 130.561M94.157 140.928V153.517M202.952 130.561V142.409M202.952 142.409L94.157 153.517M202.952 142.409L232.556 156.479M94.157 153.517L96.3773 155.738M96.3773 155.738L232.556 156.479M96.3773 155.738V168.327M232.556 156.479V171.289M232.556 171.289L96.3773 168.327M232.556 171.289L251.058 178.695M96.3773 168.327L94.157 171.289M94.157 171.289L216.273 186.1M94.157 171.289V177.584M216.273 186.1V197.948M216.273 186.1L251.058 178.695M216.273 197.948L94.157 183.878M216.273 197.948L171.867 207.575M94.157 183.878L86.0159 185.359M94.157 183.878V177.584M86.0159 185.359L171.867 207.575M86.0159 185.359V197.948M171.867 207.575V219.424M171.867 219.424L86.0159 197.948M171.867 219.424L133.382 228.31M86.0159 197.948L75.6545 199.429M75.6545 199.429L133.382 228.31M75.6545 199.429V212.759M133.382 228.31V240.158M133.382 240.158L75.6545 212.759M133.382 240.158L111.179 246.083M75.6545 212.759L53.4515 216.462M53.4515 216.462L111.179 246.083M53.4515 216.462V236.456L111.179 266.077M111.179 246.083V266.077M111.179 266.077L134.122 259.412L220.714 212.759L251.058 201.651V178.695M1.64453 18.0006V41.6974L8.30543 46.8811L81.5753 144.631L94.157 177.584" stroke="#202020" stroke-width="1.5"/>
</svg>
